<svg viewBox="0 0 760 470" width="760" height="470" xmlns="http://www.w3.org/2000/svg">
  <rect width="760" height="470" fill="#0D1524"/>
  <g stroke="#2A3A5C" stroke-width="1" opacity=".4">
    <path d="M0 44H760M0 88H760M0 132H760M0 176H760M0 220H760M0 264H760M0 308H760M0 352H760M0 396H760M0 440H760"/>
    <path d="M44 0V470M132 0V470M220 0V470M308 0V470M396 0V470M484 0V470M572 0V470M660 0V470M748 0V470"/>
  </g>

  <path d="M214 108 Q380 34 546 108" fill="none" stroke="#E23D4E" stroke-width="2.5" marker-end="url(#m-red)"/>
  <rect x="272" y="38" width="216" height="26" rx="13" fill="#0D1524"/>
  <text x="380" y="56" text-anchor="middle" font-family="monospace" font-size="12" fill="#F3A8B0">taux d'échec &#8805; seuil</text>

  <path d="M586 202 Q548 330 452 356" fill="none" stroke="#EFA02B" stroke-width="2.5" marker-end="url(#m-amber)"/>
  <rect x="500" y="272" width="188" height="26" rx="13" fill="#0D1524"/>
  <text x="594" y="290" text-anchor="middle" font-family="monospace" font-size="11.5" fill="#F6C784">après waitDuration</text>

  <path d="M420 302 Q506 250 566 196" fill="none" stroke="#E23D4E" stroke-width="2" stroke-dasharray="7 5" marker-end="url(#m-red)"/>
  <rect x="424" y="212" width="150" height="24" rx="12" fill="#0D1524"/>
  <text x="499" y="229" text-anchor="middle" font-family="monospace" font-size="11" fill="#F3A8B0">un test échoue</text>

  <path d="M308 356 Q212 330 174 202" fill="none" stroke="#16A75C" stroke-width="2.5" marker-end="url(#m-green)"/>
  <rect x="76" y="272" width="196" height="26" rx="13" fill="#0D1524"/>
  <text x="174" y="290" text-anchor="middle" font-family="monospace" font-size="11.5" fill="#8FE0B0">les tests passent</text>

  <circle cx="150" cy="140" r="72" fill="#16A75C" opacity=".1"/>
  <circle cx="150" cy="140" r="60" fill="#17223A" stroke="#16A75C" stroke-width="3"/>
  <text x="150" y="132" text-anchor="middle" font-family="monospace" font-size="15" font-weight="700" fill="#16A75C">CLOSED</text>
  <text x="150" y="153" text-anchor="middle" font-family="monospace" font-size="10.5" fill="#93A6C9">nominal</text>
  <text x="150" y="238" text-anchor="middle" font-family="monospace" font-size="11.5" fill="#C3D0E6">les appels passent</text>
  <text x="150" y="256" text-anchor="middle" font-family="monospace" font-size="11.5" fill="#7E93BC">échecs comptabilisés</text>

  <circle cx="610" cy="140" r="72" fill="#E23D4E" opacity=".1"/>
  <circle cx="610" cy="140" r="60" fill="#17223A" stroke="#E23D4E" stroke-width="3"/>
  <text x="610" y="132" text-anchor="middle" font-family="monospace" font-size="15" font-weight="700" fill="#E23D4E">OPEN</text>
  <text x="610" y="153" text-anchor="middle" font-family="monospace" font-size="10.5" fill="#93A6C9">circuit coupé</text>
  <text x="610" y="238" text-anchor="middle" font-family="monospace" font-size="11.5" fill="#C3D0E6">rejet immédiat</text>
  <text x="610" y="256" text-anchor="middle" font-family="monospace" font-size="11.5" fill="#7E93BC">le fallback prend le relais</text>

  <circle cx="380" cy="368" r="72" fill="#EFA02B" opacity=".1"/>
  <circle cx="380" cy="368" r="60" fill="#17223A" stroke="#EFA02B" stroke-width="3"/>
  <text x="380" y="360" text-anchor="middle" font-family="monospace" font-size="14" font-weight="700" fill="#EFA02B">HALF_OPEN</text>
  <text x="380" y="381" text-anchor="middle" font-family="monospace" font-size="10.5" fill="#93A6C9">test</text>
  <text x="380" y="462" text-anchor="middle" font-family="monospace" font-size="11.5" fill="#7E93BC">n appels de sondage autorisés</text>

  <defs>
    <marker id="m-red" markerWidth="10" markerHeight="10" refX="9" refY="5" orient="auto">
      <path d="M0 0L10 5L0 10z" fill="#E23D4E"/>
    </marker>
    <marker id="m-amber" markerWidth="10" markerHeight="10" refX="9" refY="5" orient="auto">
      <path d="M0 0L10 5L0 10z" fill="#EFA02B"/>
    </marker>
    <marker id="m-green" markerWidth="10" markerHeight="10" refX="9" refY="5" orient="auto">
      <path d="M0 0L10 5L0 10z" fill="#16A75C"/>
    </marker>
  </defs>
</svg>
